PathFileType	4	(X/Y/Z)	C:\Users\u0145647\OneDrive - KU Leuven\KU Leuven\c3d2osim\CP4\T0\Data\Processed\ViconC3D_CP4_2\CP4_T0_12_gapFilled.trc
DataRate	CameraRate	NumFrames	NumMarkers	Units	OrigDataRate	OrigDataStartFrame	OrigNumFrames
100.000000	100.000000	10	47	mm	100.000000	130	516
Frame#	Time	C7			T10			CLAV			STRN			LSHO			RSHO			RBAK			LASI			RASI			LPSI			RPSI			LLAT			RLAT			LF1			LF2			LF3			LTHI			LKNE			LMEK			RF1			RF2			RF3			RTHI			RKNE			RMEK			LT1			LT2			LT3			LTIB			LANK			LMM			RT1			RT2			RT3			RTIB			RANK			RMM			LHEE			LSTL			LLCA			LTOE			LCM5			RHEE			RSTL			RLCA			RTOE			RCM5
		X1	Y1	Z1	X2	Y2	Z2	X3	Y3	Z3	X4	Y4	Z4	X5	Y5	Z5	X6	Y6	Z6	X7	Y7	Z7	X8	Y8	Z8	X9	Y9	Z9	X10	Y10	Z10	X11	Y11	Z11	X12	Y12	Z12	X13	Y13	Z13	X14	Y14	Z14	X15	Y15	Z15	X16	Y16	Z16	X17	Y17	Z17	X18	Y18	Z18	X19	Y19	Z19	X20	Y20	Z20	X21	Y21	Z21	X22	Y22	Z22	X23	Y23	Z23	X24	Y24	Z24	X25	Y25	Z25	X26	Y26	Z26	X27	Y27	Z27	X28	Y28	Z28	X29	Y29	Z29	X30	Y30	Z30	X31	Y31	Z31	X32	Y32	Z32	X33	Y33	Z33	X34	Y34	Z34	X35	Y35	Z35	X36	Y36	Z36	X37	Y37	Z37	X38	Y38	Z38	X39	Y39	Z39	X40	Y40	Z40	X41	Y41	Z41	X42	Y42	Z42	X43	Y43	Z43	X44	Y44	Z44	X45	Y45	Z45	X46	Y46	Z46	X47	Y47	Z47

130	1.29	1618.9	1403.8	-97.217	1685.4	1152.2	-64.838	1515.2	1304.9	-112.19	1507	1153.5	-105.57	1514.9	1364.9	99.246	1612.9	1348.2	-290.79	1685.2	1325.1	-202.99	1506.3	890.13	1.1444	1541.6	895.42	-198.92	1687.9	908.78	-38.623	1703.5	910.15	-110.75	1565.5	954.24	58.449	1625.9	954.64	-231.16	1566.4	612.08	35.935	1569.1	657.46	49.562	1597.8	611.79	50.725	1588.9	531.95	77.331	1639.3	413.4	-7.7816	NaN	NaN	NaN	1496.4	628.7	-244.78	1490.7	667.39	-246.67	1547.8	642.02	-241.98	1462.3	572.89	-277.82	1388.4	478.38	-198.84	NaN	NaN	NaN	1783.1	292.16	11.416	1726.3	302.5	-8.0691	1761.6	332.16	13.769	1776.1	202.17	18.525	1938.9	112.67	-25.013	1927.7	126.06	-112.86	1374.5	329.98	-218.29	1361.3	376.32	-200.93	1409.5	369.66	-220.56	1340	264.57	-257.47	1334.2	84.543	-202.7	1335.2	102.55	-116.66	1993.7	124.66	-68.199	1943.7	98.18	-110.39	1948.1	87.231	-33.02	1837.3	47.223	-81.896	1851.7	35.119	-34.576	1387.1	67.139	-167.65	1329.5	68.158	-120.33	1322.5	62.672	-199.2	1208.1	86.618	-154.45	1220.4	66.628	-205.51
131	1.3	1603.4	1400.3	-97.622	1667.6	1148	-64.025	1498.9	1302.2	-111.79	1488.8	1150.9	-104.84	1500.4	1362.7	99.808	1595.4	1343.9	-291.27	1668.4	1320.9	-203.88	1485.7	885.77	0.8474	1521.7	893.28	-199.46	1667.2	905.82	-37.574	1683.2	907.78	-109.67	1544.2	950.63	58.757	1606.9	951.93	-230.65	1552.2	608.55	36.416	1554.1	653.72	49.985	1583.9	608.81	50.921	1577.3	528.9	77.694	1630.3	411.14	-7.7055	NaN	NaN	NaN	1479.5	625.63	-245.08	1473.2	664.29	-246.92	1531	639.29	-241.91	1446.5	568.78	-277.45	1371.5	475.69	-197.67	NaN	NaN	NaN	1775.5	292.29	12.29	1718.7	301.62	-7.6787	1753.7	332.1	14.464	1770.8	201.64	18.183	1934.8	115.9	-23.17	1924.2	129.28	-111.34	1352.7	327.36	-215.45	1341.2	374.3	-198.74	1388.9	365.84	-217.86	1316.2	262.45	-253.85	1303.2	83.321	-195.72	1303.9	103.08	-109.83	1989.9	129.64	-66.146	1940.8	101.68	-108.78	1945	90.654	-31.402	1836.1	47.237	-81.227	1850.6	35.337	-34.314	1355.2	64.672	-159.88	1297.2	68.6	-112.98	1290.3	62.133	-191.77	1176.6	90.354	-148.64	1188.6	69.014	-199.07
132	1.31	1587.7	1397	-98.144	1649	1143.8	-63.238	1482.2	1299.9	-111.23	1470	1148.9	-104.4	1486	1360.9	100.26	1578	1339.7	-291.61	1651.2	1316.6	-204.65	1464.3	881.14	0.57164	1501.1	891.3	-199.67	1646.1	903.64	-36.501	1662.3	906.16	-108.76	1522	946.92	58.997	1586.8	949.46	-230.44	1537.8	604.97	37.305	1538.6	650.12	50.398	1569.5	605.92	51.12	1564.8	525.94	78.287	1619.9	409.14	-7.2327	NaN	NaN	NaN	1462.2	622.9	-245.31	1455.5	661.51	-247.62	1513.6	637.37	-241.86	1430.7	564.74	-276.9	1354.3	473.29	-196.73	NaN	NaN	NaN	1767.2	292.94	13.03	1710.1	301.28	-7.1428	1744.5	332.21	15.243	1763.7	203.83	20.172	1930.3	119.89	-21.557	1919.6	132.97	-109.58	1332.7	324.73	-212.43	1322.4	371.99	-196.71	1369.7	362.37	-215.54	1295.1	259.65	-249.97	1276.9	81.711	-188.43	1277.2	103.64	-103.24	1985.1	135.4	-64.054	1937.3	106.02	-107.11	1941.2	94.691	-29.695	1835	46.957	-81.38	1849.3	35.515	-34.048	1328.2	62.644	-151.64	1269.4	68.753	-105.4	1263.6	60.682	-184	1149.6	92.079	-142.94	1161.8	69.275	-192.79
133	1.32	1571.9	1393.8	-98.767	1629.7	1139.5	-62.336	1465.2	1298.1	-111.06	1450.4	1147.6	-104.25	1471.5	1359.6	101.19	1560.5	1335.7	-291.94	1634	1312.2	-205.36	1443.3	876.65	0.36959	1480.1	889.15	-199.57	1624.6	901.93	-35.603	1641	905.22	-108.06	1499.4	943.11	59.164	1565.9	947.47	-230.45	1522.5	601.33	37.632	1522.4	646.7	50.536	1554.1	603.09	51.544	1550.9	522.99	78.771	1608.4	407.24	-6.5004	NaN	NaN	NaN	1444.2	620.82	-244.95	1437.3	659.53	-248.73	1495.2	635.94	-241.03	1414.5	561.53	-275.74	1336.5	470.96	-195.7	NaN	NaN	NaN	1757.7	294	14.23	1701.1	301.2	-6.1312	1734.2	332.79	16.349	1756.4	204.82	21.275	1924.8	124.27	-19.936	1914	137.36	-107.86	1314.7	321.5	-209.22	1304.5	369.6	-194.71	1352.1	358.82	-212.15	1277.4	256.17	-246.13	1256	79.264	-181.26	1254.5	102.82	-96.473	1979	142.04	-61.876	1932.4	110.94	-105.02	1936.7	99.592	-28.145	1833.4	46.904	-81.201	1847.9	35.728	-33.744	1306.6	60.571	-142.98	1247.3	68.217	-98.364	1242.7	58.226	-176.09	1127.9	91.189	-137.71	1140.6	67.181	-186.75
134	1.33	1555.7	1390.6	-99.513	1609.7	1135.3	-61.494	1447.7	1296.6	-111.09	1430.5	1146.5	-104.16	1457.2	1358.4	101.69	1543	1332	-292.26	1616.4	1307.7	-205.97	1423.1	871.96	0.22503	1458.6	886.92	-199.53	1602.9	900.61	-35.024	1619.3	904.69	-107.64	1477	939.54	59.252	1544.4	945.52	-230.87	1506.4	598.15	38.284	1505.6	643.54	50.952	1538.1	600.3	52.189	1536	520.63	80.147	1595.7	405.62	-5.2632	NaN	NaN	NaN	1425.8	619.14	-243.88	1418.5	657.69	-249.5	1475.9	634.74	-239.25	1397.9	558.75	-274.05	1318.9	468.09	-193.81	NaN	NaN	NaN	1747.3	295.8	15.318	1690.5	301.42	-5.0351	1723	334.2	17.999	1748.3	206.88	23.878	1918.1	129.1	-18.376	1907.2	142.32	-106.04	1298.6	318.3	-205.78	1287.6	366.81	-192.11	1335.6	355.9	-208.37	1262.2	251.92	-242.47	1240.1	75.987	-174.86	1238	101.12	-90.294	1971.6	149.38	-59.888	1926.3	116.51	-103.12	1930.7	104.76	-26.523	1831.7	46.697	-80.948	1846.2	35.9	-33.48	1290.4	58.148	-136.25	1230.7	65.918	-91.921	1226.9	54.828	-169.45	1111.6	87.361	-132.54	1124.7	62.531	-181
135	1.34	1539.3	1387.6	-100.25	1589.2	1131.4	-60.851	1429.9	1295.4	-111.03	1410.2	1145.8	-104.02	1442.4	1357.4	102.12	1525.3	1328.5	-292.59	1598.6	1303.2	-206.44	1401.4	868.13	0.37067	1436.9	884.59	-199.47	1581.2	899.58	-34.873	1597.3	904.24	-107.57	1454.7	936.23	59.475	1522.4	943.57	-231.25	1489.7	595.65	39.273	1488.4	640.97	51.676	1521.6	598.44	52.619	1520.4	518.42	81.029	1582.1	404.26	-3.41	NaN	NaN	NaN	1406.7	617.67	-242.33	1399.4	655.84	-249.32	1456.1	634.04	-237.56	1380.6	556.24	-271.94	1300.1	465.61	-191.71	NaN	NaN	NaN	1736	298.16	17.144	1678.9	302.43	-3.028	1710.5	335.71	19.25	1739.2	209.21	26.428	1910.6	134.83	-16.185	1898.8	147.45	-103.99	1283.3	314.93	-202	1271	363.28	-188.64	1319.8	353.08	-204	1248.8	247.43	-238.64	1229	71.7	-169.37	1226.5	96.901	-85.335	1962.9	157.29	-57.943	1919.2	122.8	-101.24	1924.2	110.93	-24.693	1829.9	46.462	-80.945	1844.2	36.251	-33.08	1279.5	54.992	-130.43	1219.6	61.443	-86.354	1216.2	49.961	-163.86	1099.9	80.722	-127.03	1114	55.573	-175.55
136	1.35	1522.8	1384.7	-101.1	1568.3	1127.6	-60.499	1411.8	1294.4	-111.44	1389.9	1144.8	-103.85	1427.3	1356.6	102.37	1507.2	1325.1	-293.14	1580.4	1298.8	-207.01	1380.9	864.79	0.60415	1414.8	882.26	-199.39	1560.1	898.9	-35.092	1576.1	904.01	-107.78	1432.9	933.42	59.855	1500.1	941.42	-231.73	1472.5	593.51	40.811	1470.8	638.99	52.486	1504.3	596.7	53.774	1504.3	516.99	82.953	1567.3	403.37	-0.48932	NaN	NaN	NaN	1387.1	616.01	-240.02	1379.7	653.63	-248.19	1436.2	632.79	-236.02	1362.3	553.67	-269.4	1282.8	462.04	-188.75	NaN	NaN	NaN	1723.7	301.04	19.696	1666.3	303.46	-0.26062	1697.6	338.23	21.802	1729.4	212.04	29.308	1901.7	140.51	-14.265	1889.1	152.65	-101.37	1269.5	311.3	-197.9	1255.7	359.16	-185.26	1304.8	350.47	-200.23	1237	242.61	-234.35	1221.2	69.042	-166.23	1218.5	90.974	-81.203	1952.4	165.31	-55.891	1910.3	128.94	-98.824	1916.3	116.98	-22.333	1827.6	46.196	-80.637	1842.1	36.477	-32.959	1274.2	55.841	-129.16	1215.2	56.964	-83.128	1210.8	46.545	-161.51	1093.5	68.252	-120.91	1108.5	44.746	-170.22
137	1.36	1506.3	1382.1	-102.03	1547	1124.1	-60.556	1393.5	1293.4	-111.54	1369	1144.5	-103.69	1411.7	1355.8	102.4	1488.9	1322	-293.73	1562	1294.5	-207.68	1360.1	861.56	0.66811	1393.1	879.85	-199.24	1538.2	898.53	-35.471	1554.6	904.05	-108.49	1411.4	931.24	60.263	1477.3	939.2	-232.79	1454.9	591.76	42.042	1452.8	637.28	53.045	1486.8	595.32	55.176	1487.8	516.07	84.989	1551.4	402.14	2.776	NaN	NaN	NaN	1367.6	613.53	-237.67	1359.8	650.77	-247.14	1416	629.95	-233.12	1344.5	549.68	-265.5	1263.5	460.67	-185.95	NaN	NaN	NaN	1710.3	303.91	22.757	1652.6	304.77	3.4092	1683.1	340.42	24.416	1718.3	215.4	33.834	1891.1	146.24	-11.328	1877.3	157.79	-98.474	1254.6	311.74	-193.18	1237.7	357.96	-181.17	1288.3	352.57	-194.94	1226.3	241.62	-230.69	1219.2	68.979	-165.54	1218.2	89.822	-80.236	1940.3	173.82	-53.128	1899.5	135.06	-95.973	1906.8	123.29	-19.498	1825.3	45.996	-79.88	1839.8	36.593	-32.249	1273.8	57.675	-129.55	1216.4	55.61	-82.255	1210.2	45.701	-160.48	1092.7	58.434	-115.24	1107.4	37.417	-165.33
138	1.37	1489.7	1379.9	-102.86	1525.6	1121.3	-60.422	1375.1	1293.4	-111.74	1348.3	1144.3	-103.45	1395.6	1355.4	102.44	1470.2	1319.2	-294.38	1543.6	1290.8	-208.48	1340.3	859.05	0.5601	1372.2	877.31	-200.18	1517.7	898.57	-35.887	1533.9	904.76	-109.27	1390.1	929.35	60.627	1454.7	937.58	-234.19	1437.3	590.37	43.042	1434.9	635.88	53.382	1469.2	594.24	56.219	1471	515.41	86.974	1533.8	400.81	6.5455	NaN	NaN	NaN	1347.9	610.9	-232.97	1339.8	647.96	-245.65	1395	628.93	-230.12	1328.2	544.49	-258.05	1238.9	464.39	-181.21	NaN	NaN	NaN	1695.1	306.59	26.024	1637	305.91	8.2161	1667.1	342.39	27.783	1705.5	219.14	39.035	1878.2	151.63	-7.819	1863.6	162.09	-94.333	1237.9	316.73	-191.3	1218.6	362	-176.57	1269.5	359.52	-192.44	1212.3	246.77	-228.86	1218.3	69.353	-164.95	1218.8	90.196	-79.777	1925.4	181.77	-49.231	1886.4	141.08	-91.973	1894.8	129.05	-15.795	1822.3	45.245	-78.7	1836.4	36.673	-31.225	1272.8	59.018	-130.58	1217	55.197	-81.885	1209.1	45.639	-159.73	1093.8	55.811	-111.62	1106.2	35.589	-162.27
139	1.38	1472.6	1378.3	-103.85	1504.7	1119.3	-60.515	1356.7	1293.5	-111.81	1327.6	1145	-103.14	1379.5	1355.3	102.45	1451.5	1316.8	-295.12	1524.9	1287.6	-209.37	1321	857.5	0.6694	1351.4	876.15	-200.46	1497.6	898.79	-35.954	1513.2	905.34	-109.6	1368.8	928.1	60.888	1433	936.25	-234.75	1419.1	589.14	44.248	1416.9	634.44	53.967	1451.1	593.28	57.303	1453.5	515.11	88.962	1514.5	399.34	9.4511	NaN	NaN	NaN	1326.5	611.27	-228.77	1319.3	647.28	-240.96	1374.2	628.8	-227.33	1304.7	547.85	-255.5	1214.4	468.75	-175.28	NaN	NaN	NaN	1677.5	308.77	29.217	1619.2	306.92	12.487	1649	344.32	31.376	1689.9	222.87	45.092	1862.2	156.19	-3.6234	1847.3	165.71	-89.895	1221.4	320.38	-188.87	1201	364.93	-172.47	1250.5	364.98	-191.59	1196.5	249.71	-226.43	1214.4	69.537	-164.22	1215.9	90.34	-79.114	1907.7	189	-44.388	1870.8	145.94	-87.518	1879.9	133.96	-11.705	1818.7	44.721	-77.668	1832	37.039	-30.013	1269.6	60.828	-130.63	1214.9	54.225	-81.284	1206.6	45.324	-159.23	1091.4	51.528	-110.25	1104.1	32.875	-163.56
